<?xml version="1.0" standalone="no"?>
<!DOCTYPE svg PUBLIC "-//W3C//DTD SVG 20010904//EN"
 "http://www.w3.org/TR/2001/REC-SVG-20010904/DTD/svg10.dtd">
<svg version="1.0" xmlns="http://www.w3.org/2000/svg"
 width="259.000000pt" height="119.000000pt" viewBox="0 0 259.000000 119.000000"
 preserveAspectRatio="xMidYMid meet">

<g transform="translate(0.000000,119.000000) scale(0.100000,-0.100000)"
fill="#000000" stroke="none">
<path d="M695 1131 c44 -4 96 -16 115 -26 l35 -18 -25 -16 c-85 -56 -156 -120
-287 -259 -188 -199 -229 -238 -275 -263 -50 -26 -102 -25 -130 3 l-22 22 24
6 c29 7 38 28 15 36 -24 10 -49 -19 -41 -49 8 -34 54 -51 122 -44 106 11 211
94 371 294 64 80 146 170 182 199 60 50 67 53 78 37 27 -36 8 -112 -43 -171
-47 -56 -69 -67 -129 -64 -49 3 -99 -18 -82 -34 10 -10 65 -11 100 -1 25 7 27
5 27 -24 0 -84 -59 -176 -134 -210 -104 -47 -157 8 -78 83 42 41 85 64 139 77
36 8 36 9 8 10 -64 1 -170 -69 -196 -130 -12 -29 -11 -33 10 -50 69 -56 252
23 290 124 15 39 14 67 -4 101 -19 36 -20 33 18 52 41 21 95 71 113 106 18 35
18 109 -1 134 -22 29 -19 32 33 48 31 10 39 15 22 15 -14 0 -38 -6 -55 -13
-26 -12 -35 -11 -70 7 -29 15 -63 21 -125 23 l-85 3 80 -8z m0 -331 c-3 -5
-22 -10 -41 -10 -21 0 -33 4 -29 10 3 6 22 10 41 10 21 0 33 -4 29 -10z"/>
<path d="M522 1110 c-69 -24 -116 -54 -175 -109 -110 -103 -118 -221 -15 -221
120 0 248 106 278 231 17 71 7 71 -19 0 -51 -141 -242 -269 -305 -205 -23 23
-20 54 12 105 52 81 163 165 267 201 27 10 41 17 30 17 -11 0 -44 -8 -73 -19z"/>
<path d="M1080 945 c-16 -19 -6 -45 18 -45 25 0 46 25 38 45 -7 19 -40 19 -56
0z"/>
<path d="M1280 945 c-16 -19 -6 -45 18 -45 25 0 46 25 38 45 -7 19 -40 19 -56
0z"/>
<path d="M948 758 c-138 -162 -162 -238 -76 -238 40 0 95 30 159 87 l54 48
-36 -45 c-157 -199 -138 -182 -283 -253 -162 -80 -214 -131 -171 -167 19 -16
78 -9 131 15 22 10 87 67 145 126 75 76 124 117 166 138 80 40 147 91 211 159
51 56 52 57 37 20 -31 -78 -9 -128 58 -128 33 0 95 30 121 59 13 14 26 19 41
15 28 -7 54 6 106 53 46 41 49 38 14 -14 -29 -41 -30 -89 -4 -106 26 -16 81 1
134 41 l50 38 0 -41 c0 -36 2 -40 28 -43 17 -2 45 7 70 22 44 26 169 146 152
146 -6 0 -23 -16 -38 -35 -63 -80 -197 -155 -197 -111 0 10 45 72 100 139 98
119 100 122 73 125 -21 3 -35 -4 -58 -31 -135 -153 -175 -194 -214 -218 -71
-45 -105 -36 -76 20 8 17 53 76 100 131 l85 100 -33 0 c-29 0 -40 -9 -86 -65
-29 -36 -57 -62 -62 -59 -6 3 -32 -15 -59 -40 -71 -67 -104 -63 -65 7 30 54
40 109 26 136 -9 16 -21 21 -52 21 -56 0 -101 -22 -154 -74 -25 -25 -47 -46
-49 -46 -2 0 -39 -35 -82 -77 -44 -43 -104 -92 -134 -110 -93 -54 -99 -53 -47
13 26 32 88 112 138 177 l90 117 -33 0 c-28 0 -38 -8 -66 -48 -37 -54 -78
-104 -66 -82 4 8 -27 -18 -70 -57 -81 -75 -145 -108 -168 -85 -14 14 0 37 109
170 83 100 84 102 55 102 -23 0 -39 -11 -74 -52z m592 21 c15 -28 3 -77 -26
-102 -13 -11 -24 -28 -24 -38 0 -20 -70 -86 -107 -100 -39 -15 -63 -3 -63 32
0 52 60 139 137 200 42 34 68 37 83 8z m-710 -439 c-96 -114 -192 -173 -226
-138 -26 26 32 80 148 138 55 28 104 50 110 50 5 0 -9 -22 -32 -50z"/>
<path d="M2195 798 c-27 -15 -105 -90 -105 -102 0 -5 27 16 59 47 41 39 68 57
85 57 37 0 34 -33 -10 -106 -64 -106 -114 -145 -181 -141 -28 1 -38 -2 -38
-13 0 -21 48 -24 85 -5 17 9 48 31 69 50 l37 34 0 -36 c0 -62 51 -80 122 -44
45 23 138 104 154 135 6 11 -20 -9 -58 -45 -76 -72 -124 -102 -157 -97 -51 7
-1 134 84 213 51 48 74 55 94 28 15 -21 48 -10 43 14 -4 20 -37 28 -74 19 -14
-4 -42 -23 -64 -42 -37 -33 -40 -35 -40 -15 0 55 -51 79 -105 49z"/>
<path d="M975 100 c0 -32 3 -56 7 -52 11 12 14 112 3 112 -6 0 -10 -27 -10
-60z"/>
<path d="M1034 116 c-11 -28 1 -51 25 -51 32 0 49 28 32 49 -17 20 -50 21 -57
2z m46 -21 c0 -25 -23 -35 -35 -15 -10 16 2 40 20 40 9 0 15 -9 15 -25z"/>
<path d="M1138 89 c13 -35 14 -42 1 -50 -12 -7 -12 -9 1 -9 9 0 21 20 32 50 9
28 12 50 8 50 -4 0 -11 -12 -15 -27 -6 -24 -8 -26 -16 -10 -6 9 -7 22 -4 27 3
6 0 10 -9 10 -12 0 -12 -5 2 -41z"/>
<path d="M1231 116 c-20 -24 -4 -56 27 -55 21 1 22 2 7 6 -34 8 -41 23 -11 23
21 0 27 4 24 17 -4 23 -31 28 -47 9z m39 -6 c0 -5 -7 -10 -15 -10 -8 0 -15 5
-15 10 0 6 7 10 15 10 8 0 15 -4 15 -10z"/>
<path d="M1324 95 c1 -19 6 -35 13 -35 6 0 9 9 6 21 -4 15 0 27 12 35 18 13
17 14 -6 14 -23 0 -25 -4 -25 -35z"/>
<path d="M1395 95 c0 -25 4 -35 15 -35 12 0 15 8 12 35 -2 19 -9 35 -16 35 -6
0 -11 -15 -11 -35z"/>
<path d="M1473 124 c23 -7 22 -20 -4 -27 -30 -8 -18 -31 18 -35 30 -3 31 -2
24 30 -5 26 -12 33 -31 35 -15 1 -18 0 -7 -3z m17 -44 c0 -5 -4 -10 -10 -10
-5 0 -10 5 -10 10 0 6 5 10 10 10 6 0 10 -4 10 -10z"/>
</g>
</svg>
